<?xml version="1.0" standalone="no"?>
<!DOCTYPE svg PUBLIC "-//W3C//DTD SVG 20010904//EN"
 "http://www.w3.org/TR/2001/REC-SVG-20010904/DTD/svg10.dtd">
<svg version="1.0" xmlns="http://www.w3.org/2000/svg"
 width="100px" height="100px" viewBox="0 0 644.000000 1280.000000"
 preserveAspectRatio="xMidYMid meet">
<g transform="translate(0.000000,1280.000000) scale(0.100000,-0.100000)"
stroke="none">
<path d="M1475 12776 c-186 -51 -336 -171 -413 -330 -130 -269 -20 -629 240
-784 100 -60 160 -76 288 -76 63 -1 132 3 153 7 48 10 48 -3 2 -54 -50 -55
-85 -130 -85 -182 0 -121 -34 -280 -155 -722 l-126 -460 -14 -305 c-22 -475
-21 -466 -57 -491 -54 -39 -137 -149 -152 -203 -15 -52 -50 -92 -128 -150 -44
-31 -47 -54 -17 -103 24 -39 20 -60 -13 -65 -38 -5 -33 -41 17 -135 l46 -88
-30 -25 c-17 -14 -35 -37 -40 -52 -9 -23 -6 -32 14 -57 20 -23 25 -40 25 -85
0 -51 2 -57 30 -71 16 -8 51 -20 79 -26 58 -12 84 -35 55 -46 -11 -4 -25 -14
-32 -22 -55 -69 -398 -625 -456 -738 -31 -62 -32 -76 -7 -117 16 -26 21 -59
27 -193 5 -115 4 -163 -4 -163 -6 0 -23 17 -38 38 -45 61 -47 61 -39 -2 9 -78
17 -97 59 -144 35 -38 36 -42 46 -158 26 -315 41 -364 154 -515 47 -62 56 -81
56 -115 0 -54 -30 -151 -81 -261 -73 -157 -87 -202 -99 -328 -29 -307 -56
-449 -140 -730 -146 -491 -163 -530 -240 -570 -26 -13 -30 -13 -55 7 l-27 21
-19 -24 c-15 -19 -18 -32 -12 -64 12 -62 5 -135 -17 -180 -11 -23 -63 -92
-116 -155 -58 -69 -91 -116 -84 -120 6 -4 8 -14 5 -22 -4 -9 -2 -19 4 -23 18
-11 13 -30 -29 -99 -45 -73 -46 -76 -27 -76 8 0 22 -9 32 -20 27 -30 76 -26
107 8 14 15 67 83 117 152 51 69 97 125 104 125 8 0 11 -15 9 -45 -5 -78 -30
-162 -77 -254 -25 -48 -42 -92 -39 -97 7 -12 61 -11 85 2 11 6 35 41 53 79 18
38 41 76 50 85 9 9 16 33 16 53 1 38 28 101 31 72 1 -8 1 -71 -1 -140 -2 -102
1 -128 13 -138 11 -10 17 -10 22 -1 15 24 45 157 55 249 6 52 14 109 16 127 3
19 31 67 66 114 85 116 83 109 117 369 7 50 27 116 60 195 50 124 380 867 387
874 2 2 28 -8 58 -22 48 -23 56 -32 70 -74 9 -25 16 -67 16 -92 0 -57 16 -114
69 -256 55 -147 105 -348 131 -525 12 -80 45 -237 74 -350 50 -191 119 -473
180 -736 22 -92 76 -234 90 -234 16 0 421 75 535 99 156 33 181 36 181 21 0
-5 34 -54 75 -107 128 -166 238 -245 483 -349 25 -10 48 -27 52 -39 14 -37
256 -234 645 -526 238 -179 257 -191 286 -184 19 5 33 -3 70 -42 25 -26 67
-75 93 -109 40 -52 45 -65 40 -92 -6 -28 0 -39 42 -89 27 -32 107 -117 178
-190 130 -135 146 -163 91 -163 -36 0 -31 -15 23 -75 55 -60 96 -139 107 -205
4 -25 13 -55 20 -66 8 -12 24 -59 35 -104 23 -91 44 -135 132 -288 l60 -102
-7 -159 c-7 -154 -7 -159 16 -199 13 -23 31 -42 39 -42 8 0 28 -7 44 -15 15
-8 33 -15 40 -15 17 0 49 53 118 195 l63 130 3 -53 c3 -47 7 -56 49 -96 51
-49 83 -62 114 -46 26 14 159 182 231 291 60 91 162 271 292 517 94 178 96
182 242 540 121 296 119 278 26 320 -209 93 -209 93 -340 108 -70 7 -161 14
-202 14 -114 1 -198 47 -238 130 -30 63 -326 424 -358 437 -7 2 -51 50 -97
106 -47 56 -121 142 -166 190 -49 54 -81 98 -81 110 0 12 -8 34 -18 48 -32 50
-237 283 -327 375 -100 100 -133 122 -418 269 l-188 97 -24 -22 -24 -22 -120
113 c-67 63 -121 118 -121 123 0 4 36 48 79 97 105 116 258 343 249 369 -2 6
-33 22 -70 34 l-67 24 -40 -30 c-23 -16 -49 -28 -58 -26 -10 2 -34 33 -55 73
-29 57 -38 88 -48 169 -14 122 -41 211 -77 257 -46 59 -145 138 -225 179 -42
23 -80 45 -83 49 -3 5 -12 44 -21 88 -9 43 -26 94 -40 113 l-24 36 22 63 c18
52 28 67 61 88 26 16 37 29 33 39 -3 9 -6 20 -6 26 0 5 -46 57 -103 116 -57
59 -130 140 -162 181 -64 81 -96 100 -184 108 -31 3 -96 19 -144 36 -84 29
-88 31 -82 56 5 23 0 29 -40 50 -56 30 -64 52 -32 91 19 22 27 47 32 97 4 38
14 80 21 95 8 15 14 57 14 94 0 74 11 55 -124 207 -20 22 -33 27 -70 27 -79 0
-74 38 20 146 36 41 72 91 81 112 18 44 32 205 39 487 7 235 -4 331 -51 432
-32 71 -59 198 -80 383 -19 165 -38 230 -90 300 -59 81 -80 91 -180 89 -47 -1
-88 0 -90 3 -2 2 18 42 46 89 70 119 81 164 77 312 -3 106 -6 128 -27 170 -49
96 -132 160 -258 201 -28 9 -56 23 -62 30 -19 22 4 177 53 368 l46 178 10 362
c18 630 30 906 40 955 14 62 40 101 144 212 73 78 86 97 90 133 3 24 11 86 17
138 6 52 21 123 35 157 13 34 24 81 24 105 0 42 -28 118 -54 148 -8 8 -19 46
-25 83 -44 260 -215 442 -475 507 -97 25 -139 24 -241 -4z m-483 -6681 c-4
-33 -21 -69 -29 -61 -11 10 8 97 20 93 7 -2 11 -17 9 -32z m318 -664 c16 -31
12 -47 -15 -61 -34 -18 -40 -8 -26 40 13 44 25 50 41 21z m2837 -2685 c48 -41
153 -136 232 -210 79 -75 152 -136 161 -136 27 0 230 -199 250 -244 21 -49
229 -293 360 -423 58 -58 87 -94 79 -97 -8 -2 -29 -9 -47 -15 -29 -9 -35 -7
-65 22 -19 18 -65 73 -103 122 -86 113 -290 324 -319 331 -13 3 -63 53 -111
111 -49 58 -190 216 -314 350 -124 135 -226 249 -228 254 -9 24 25 3 105 -65z"/>
</g>
</svg>
