<?xml version="1.0" standalone="no"?>
<!DOCTYPE svg PUBLIC "-//W3C//DTD SVG 20010904//EN"
 "http://www.w3.org/TR/2001/REC-SVG-20010904/DTD/svg10.dtd">
<svg version="1.0" xmlns="http://www.w3.org/2000/svg"
 width="100px" height="100px" viewBox="0 0 469.000000 469.000000"
 preserveAspectRatio="xMidYMid meet">

<g transform="translate(0.000000,469.000000) scale(0.100000,-0.100000)"
stroke="none">
<path d="M360 2855 c-40 -21 -92 -38 -135 -45 -85 -13 -172 -39 -185 -55 -15
-19 11 -45 55 -55 22 -6 94 -17 161 -25 66 -8 145 -22 175 -30 30 -8 113 -31
184 -49 412 -109 463 -128 658 -248 132 -81 235 -128 320 -147 26 -6 192 -36
369 -66 178 -30 350 -62 382 -71 109 -29 220 -44 356 -50 100 -5 146 -11 179
-25 56 -24 76 -24 195 6 122 30 315 44 369 26 21 -7 51 -24 67 -37 33 -28 206
-112 290 -140 88 -30 245 -25 390 11 85 22 134 29 186 27 55 -2 90 3 150 23
46 15 90 24 106 21 39 -8 44 10 11 43 -20 20 -47 33 -87 41 -31 6 -60 18 -63
26 -8 23 -43 16 -122 -21 l-73 -35 -217 -3 -216 -2 -62 33 c-34 19 -88 56
-120 83 -102 86 -142 109 -191 109 -39 0 -49 5 -83 42 -22 24 -39 46 -39 50 0
18 -88 50 -204 73 -206 42 -335 54 -531 52 -209 -2 -221 1 -335 98 -90 77
-136 90 -300 82 -69 -4 -152 -13 -185 -22 -33 -8 -78 -13 -100 -10 -22 3 -119
10 -216 15 -182 11 -247 24 -331 66 -80 41 -215 74 -343 85 -125 10 -223 34
-253 61 -9 8 -34 33 -55 56 -47 52 -69 53 -157 7z"/>
<path d="M3075 2529 c-44 -21 -94 -21 -217 1 -77 15 -104 9 -89 -18 5 -10 21
-24 35 -32 14 -7 26 -19 26 -26 0 -17 24 -24 78 -24 67 0 158 -15 307 -52
l130 -31 57 -59 c37 -38 64 -58 80 -58 54 0 101 -24 180 -91 82 -70 123 -97
133 -87 12 12 16 127 6 164 -15 54 -61 117 -111 150 -33 22 -58 29 -123 34
-76 6 -96 13 -233 78 -163 78 -191 84 -259 51z"/>
<path d="M3814 2046 c-13 -34 65 -62 146 -54 34 3 32 4 -35 30 -38 15 -78 30
-87 34 -12 4 -20 0 -24 -10z"/>
</g>
</svg>
